# xmcd CD database file
#
# Track frame offsets:
#	150
#	34335
#	60055
#	76205
#	94577
#	119332
#	148150
#	161752
#	177375
#
# Disc length: 2668 seconds
#
# Revision: 0
# Processed by: cddbd v1.5.2PL0 Copyright (c) Steve Scherf et al.
# Submitted via: CDex 1.81
#
DISCID=700a6a09
DTITLE=Ole Amund Gjersvik - Alone in the Crowd
DYEAR=1992
DGENRE=Jazz
TTITLE0=Burglar Blues
TTITLE1=Bossa for Geir
TTITLE2=Beautiful Love
TTITLE3=I Can Hear Your Voice
TTITLE4=Gorgon Spiser Lunch
TTITLE5=Hazy
TTITLE6=In the Cave
TTITLE7=Alone in the Crowd
TTITLE8=Bare Barnet
EXTD=YEAR: 1992
EXTT0=
EXTT1=
EXTT2=
EXTT3=
EXTT4=
EXTT5=
EXTT6=
EXTT7=
EXTT8=
PLAYORDER=
